<mxfile host="app.diagrams.net" modified="2021-08-18T06:25:47.234Z" agent="5.0 (Windows NT 10.0; Win64; x64) AppleWebKit/537.36 (KHTML, like Gecko) Chrome/92.0.4515.131 Safari/537.36" etag="0iZUg4x1qRR46aD_nywM" version="14.9.7" type="github">
  <diagram id="24LHwr3LPrmplzdwor-W" name="Page-1">
    <mxGraphModel dx="1038" dy="469" grid="1" gridSize="10" guides="1" tooltips="1" connect="1" arrows="1" fold="1" page="1" pageScale="1" pageWidth="850" pageHeight="1100" math="0" shadow="0">
      <root>
        <mxCell id="0" />
        <mxCell id="1" parent="0" />
        <mxCell id="-eeA9KjMYzKJ0V8_IV6V-105" value="" style="edgeStyle=entityRelationEdgeStyle;fontSize=12;html=1;endArrow=ERoneToMany;" edge="1" parent="1">
          <mxGeometry width="100" height="100" relative="1" as="geometry">
            <mxPoint x="250" y="440" as="sourcePoint" />
            <mxPoint x="300" y="700" as="targetPoint" />
          </mxGeometry>
        </mxCell>
        <mxCell id="-eeA9KjMYzKJ0V8_IV6V-1" value="User" style="shape=table;startSize=30;container=1;collapsible=1;childLayout=tableLayout;fixedRows=1;rowLines=0;fontStyle=1;align=center;resizeLast=1;" vertex="1" parent="1">
          <mxGeometry x="20" y="30" width="180" height="160" as="geometry" />
        </mxCell>
        <mxCell id="-eeA9KjMYzKJ0V8_IV6V-2" value="" style="shape=partialRectangle;collapsible=0;dropTarget=0;pointerEvents=0;fillColor=none;top=0;left=0;bottom=1;right=0;points=[[0,0.5],[1,0.5]];portConstraint=eastwest;" vertex="1" parent="-eeA9KjMYzKJ0V8_IV6V-1">
          <mxGeometry y="30" width="180" height="30" as="geometry" />
        </mxCell>
        <mxCell id="-eeA9KjMYzKJ0V8_IV6V-3" value="PK" style="shape=partialRectangle;connectable=0;fillColor=none;top=0;left=0;bottom=0;right=0;fontStyle=1;overflow=hidden;" vertex="1" parent="-eeA9KjMYzKJ0V8_IV6V-2">
          <mxGeometry width="30" height="30" as="geometry" />
        </mxCell>
        <mxCell id="-eeA9KjMYzKJ0V8_IV6V-4" value="User ID intÂ " style="shape=partialRectangle;connectable=0;fillColor=none;top=0;left=0;bottom=0;right=0;align=left;spacingLeft=6;fontStyle=5;overflow=hidden;" vertex="1" parent="-eeA9KjMYzKJ0V8_IV6V-2">
          <mxGeometry x="30" width="150" height="30" as="geometry" />
        </mxCell>
        <mxCell id="-eeA9KjMYzKJ0V8_IV6V-5" value="" style="shape=partialRectangle;collapsible=0;dropTarget=0;pointerEvents=0;fillColor=none;top=0;left=0;bottom=0;right=0;points=[[0,0.5],[1,0.5]];portConstraint=eastwest;" vertex="1" parent="-eeA9KjMYzKJ0V8_IV6V-1">
          <mxGeometry y="60" width="180" height="30" as="geometry" />
        </mxCell>
        <mxCell id="-eeA9KjMYzKJ0V8_IV6V-6" value="" style="shape=partialRectangle;connectable=0;fillColor=none;top=0;left=0;bottom=0;right=0;editable=1;overflow=hidden;" vertex="1" parent="-eeA9KjMYzKJ0V8_IV6V-5">
          <mxGeometry width="30" height="30" as="geometry" />
        </mxCell>
        <mxCell id="-eeA9KjMYzKJ0V8_IV6V-7" value="Name: varchar (10)" style="shape=partialRectangle;connectable=0;fillColor=none;top=0;left=0;bottom=0;right=0;align=left;spacingLeft=6;overflow=hidden;" vertex="1" parent="-eeA9KjMYzKJ0V8_IV6V-5">
          <mxGeometry x="30" width="150" height="30" as="geometry" />
        </mxCell>
        <mxCell id="-eeA9KjMYzKJ0V8_IV6V-8" value="" style="shape=partialRectangle;collapsible=0;dropTarget=0;pointerEvents=0;fillColor=none;top=0;left=0;bottom=0;right=0;points=[[0,0.5],[1,0.5]];portConstraint=eastwest;" vertex="1" parent="-eeA9KjMYzKJ0V8_IV6V-1">
          <mxGeometry y="90" width="180" height="30" as="geometry" />
        </mxCell>
        <mxCell id="-eeA9KjMYzKJ0V8_IV6V-9" value="" style="shape=partialRectangle;connectable=0;fillColor=none;top=0;left=0;bottom=0;right=0;editable=1;overflow=hidden;" vertex="1" parent="-eeA9KjMYzKJ0V8_IV6V-8">
          <mxGeometry width="30" height="30" as="geometry" />
        </mxCell>
        <mxCell id="-eeA9KjMYzKJ0V8_IV6V-10" value="Emai ID: varchar (10)" style="shape=partialRectangle;connectable=0;fillColor=none;top=0;left=0;bottom=0;right=0;align=left;spacingLeft=6;overflow=hidden;" vertex="1" parent="-eeA9KjMYzKJ0V8_IV6V-8">
          <mxGeometry x="30" width="150" height="30" as="geometry" />
        </mxCell>
        <mxCell id="-eeA9KjMYzKJ0V8_IV6V-11" value="" style="shape=partialRectangle;collapsible=0;dropTarget=0;pointerEvents=0;fillColor=none;top=0;left=0;bottom=0;right=0;points=[[0,0.5],[1,0.5]];portConstraint=eastwest;" vertex="1" parent="-eeA9KjMYzKJ0V8_IV6V-1">
          <mxGeometry y="120" width="180" height="30" as="geometry" />
        </mxCell>
        <mxCell id="-eeA9KjMYzKJ0V8_IV6V-12" value="" style="shape=partialRectangle;connectable=0;fillColor=none;top=0;left=0;bottom=0;right=0;editable=1;overflow=hidden;" vertex="1" parent="-eeA9KjMYzKJ0V8_IV6V-11">
          <mxGeometry width="30" height="30" as="geometry" />
        </mxCell>
        <mxCell id="-eeA9KjMYzKJ0V8_IV6V-13" value="Password Varchar(10)" style="shape=partialRectangle;connectable=0;fillColor=none;top=0;left=0;bottom=0;right=0;align=left;spacingLeft=6;overflow=hidden;" vertex="1" parent="-eeA9KjMYzKJ0V8_IV6V-11">
          <mxGeometry x="30" width="150" height="30" as="geometry" />
        </mxCell>
        <mxCell id="-eeA9KjMYzKJ0V8_IV6V-14" value="Home Page" style="shape=table;startSize=30;container=1;collapsible=1;childLayout=tableLayout;fixedRows=1;rowLines=0;fontStyle=1;align=center;resizeLast=1;" vertex="1" parent="1">
          <mxGeometry x="280" y="30" width="280" height="160" as="geometry" />
        </mxCell>
        <mxCell id="-eeA9KjMYzKJ0V8_IV6V-15" value="" style="shape=partialRectangle;collapsible=0;dropTarget=0;pointerEvents=0;fillColor=none;top=0;left=0;bottom=1;right=0;points=[[0,0.5],[1,0.5]];portConstraint=eastwest;" vertex="1" parent="-eeA9KjMYzKJ0V8_IV6V-14">
          <mxGeometry y="30" width="280" height="30" as="geometry" />
        </mxCell>
        <mxCell id="-eeA9KjMYzKJ0V8_IV6V-16" value="" style="shape=partialRectangle;connectable=0;fillColor=none;top=0;left=0;bottom=0;right=0;fontStyle=1;overflow=hidden;" vertex="1" parent="-eeA9KjMYzKJ0V8_IV6V-15">
          <mxGeometry width="30" height="30" as="geometry" />
        </mxCell>
        <mxCell id="-eeA9KjMYzKJ0V8_IV6V-17" value="" style="shape=partialRectangle;connectable=0;fillColor=none;top=0;left=0;bottom=0;right=0;align=left;spacingLeft=6;fontStyle=5;overflow=hidden;" vertex="1" parent="-eeA9KjMYzKJ0V8_IV6V-15">
          <mxGeometry x="30" width="250" height="30" as="geometry" />
        </mxCell>
        <mxCell id="-eeA9KjMYzKJ0V8_IV6V-18" value="" style="shape=partialRectangle;collapsible=0;dropTarget=0;pointerEvents=0;fillColor=none;top=0;left=0;bottom=0;right=0;points=[[0,0.5],[1,0.5]];portConstraint=eastwest;" vertex="1" parent="-eeA9KjMYzKJ0V8_IV6V-14">
          <mxGeometry y="60" width="280" height="30" as="geometry" />
        </mxCell>
        <mxCell id="-eeA9KjMYzKJ0V8_IV6V-19" value="" style="shape=partialRectangle;connectable=0;fillColor=none;top=0;left=0;bottom=0;right=0;editable=1;overflow=hidden;" vertex="1" parent="-eeA9KjMYzKJ0V8_IV6V-18">
          <mxGeometry width="30" height="30" as="geometry" />
        </mxCell>
        <mxCell id="-eeA9KjMYzKJ0V8_IV6V-20" value="Introduction Text: varchar (50)" style="shape=partialRectangle;connectable=0;fillColor=none;top=0;left=0;bottom=0;right=0;align=left;spacingLeft=6;overflow=hidden;" vertex="1" parent="-eeA9KjMYzKJ0V8_IV6V-18">
          <mxGeometry x="30" width="250" height="30" as="geometry" />
        </mxCell>
        <mxCell id="-eeA9KjMYzKJ0V8_IV6V-21" value="" style="shape=partialRectangle;collapsible=0;dropTarget=0;pointerEvents=0;fillColor=none;top=0;left=0;bottom=0;right=0;points=[[0,0.5],[1,0.5]];portConstraint=eastwest;" vertex="1" parent="-eeA9KjMYzKJ0V8_IV6V-14">
          <mxGeometry y="90" width="280" height="30" as="geometry" />
        </mxCell>
        <mxCell id="-eeA9KjMYzKJ0V8_IV6V-22" value="" style="shape=partialRectangle;connectable=0;fillColor=none;top=0;left=0;bottom=0;right=0;editable=1;overflow=hidden;" vertex="1" parent="-eeA9KjMYzKJ0V8_IV6V-21">
          <mxGeometry width="30" height="30" as="geometry" />
        </mxCell>
        <mxCell id="-eeA9KjMYzKJ0V8_IV6V-23" value="Useful Links: varchar (30)" style="shape=partialRectangle;connectable=0;fillColor=none;top=0;left=0;bottom=0;right=0;align=left;spacingLeft=6;overflow=hidden;" vertex="1" parent="-eeA9KjMYzKJ0V8_IV6V-21">
          <mxGeometry x="30" width="250" height="30" as="geometry" />
        </mxCell>
        <mxCell id="-eeA9KjMYzKJ0V8_IV6V-24" value="" style="shape=partialRectangle;collapsible=0;dropTarget=0;pointerEvents=0;fillColor=none;top=0;left=0;bottom=0;right=0;points=[[0,0.5],[1,0.5]];portConstraint=eastwest;" vertex="1" parent="-eeA9KjMYzKJ0V8_IV6V-14">
          <mxGeometry y="120" width="280" height="30" as="geometry" />
        </mxCell>
        <mxCell id="-eeA9KjMYzKJ0V8_IV6V-25" value="" style="shape=partialRectangle;connectable=0;fillColor=none;top=0;left=0;bottom=0;right=0;editable=1;overflow=hidden;" vertex="1" parent="-eeA9KjMYzKJ0V8_IV6V-24">
          <mxGeometry width="30" height="30" as="geometry" />
        </mxCell>
        <mxCell id="-eeA9KjMYzKJ0V8_IV6V-26" value="Contact: varchar (30)" style="shape=partialRectangle;connectable=0;fillColor=none;top=0;left=0;bottom=0;right=0;align=left;spacingLeft=6;overflow=hidden;" vertex="1" parent="-eeA9KjMYzKJ0V8_IV6V-24">
          <mxGeometry x="30" width="250" height="30" as="geometry" />
        </mxCell>
        <mxCell id="-eeA9KjMYzKJ0V8_IV6V-28" value="Place Appointment" style="shape=table;startSize=30;container=1;collapsible=1;childLayout=tableLayout;fixedRows=1;rowLines=0;fontStyle=1;align=center;resizeLast=1;" vertex="1" parent="1">
          <mxGeometry x="30" y="250" width="220" height="370" as="geometry" />
        </mxCell>
        <mxCell id="-eeA9KjMYzKJ0V8_IV6V-29" value="" style="shape=partialRectangle;collapsible=0;dropTarget=0;pointerEvents=0;fillColor=none;top=0;left=0;bottom=1;right=0;points=[[0,0.5],[1,0.5]];portConstraint=eastwest;" vertex="1" parent="-eeA9KjMYzKJ0V8_IV6V-28">
          <mxGeometry y="30" width="220" height="30" as="geometry" />
        </mxCell>
        <mxCell id="-eeA9KjMYzKJ0V8_IV6V-30" value="PK" style="shape=partialRectangle;connectable=0;fillColor=none;top=0;left=0;bottom=0;right=0;fontStyle=1;overflow=hidden;" vertex="1" parent="-eeA9KjMYzKJ0V8_IV6V-29">
          <mxGeometry width="30" height="30" as="geometry" />
        </mxCell>
        <mxCell id="-eeA9KjMYzKJ0V8_IV6V-31" value="UniqueID intÂ " style="shape=partialRectangle;connectable=0;fillColor=none;top=0;left=0;bottom=0;right=0;align=left;spacingLeft=6;fontStyle=5;overflow=hidden;" vertex="1" parent="-eeA9KjMYzKJ0V8_IV6V-29">
          <mxGeometry x="30" width="190" height="30" as="geometry" />
        </mxCell>
        <mxCell id="-eeA9KjMYzKJ0V8_IV6V-32" value="" style="shape=partialRectangle;collapsible=0;dropTarget=0;pointerEvents=0;fillColor=none;top=0;left=0;bottom=0;right=0;points=[[0,0.5],[1,0.5]];portConstraint=eastwest;" vertex="1" parent="-eeA9KjMYzKJ0V8_IV6V-28">
          <mxGeometry y="60" width="220" height="30" as="geometry" />
        </mxCell>
        <mxCell id="-eeA9KjMYzKJ0V8_IV6V-33" value="" style="shape=partialRectangle;connectable=0;fillColor=none;top=0;left=0;bottom=0;right=0;editable=1;overflow=hidden;" vertex="1" parent="-eeA9KjMYzKJ0V8_IV6V-32">
          <mxGeometry width="30" height="30" as="geometry" />
        </mxCell>
        <mxCell id="-eeA9KjMYzKJ0V8_IV6V-34" value="Name: varchar (10)" style="shape=partialRectangle;connectable=0;fillColor=none;top=0;left=0;bottom=0;right=0;align=left;spacingLeft=6;overflow=hidden;" vertex="1" parent="-eeA9KjMYzKJ0V8_IV6V-32">
          <mxGeometry x="30" width="190" height="30" as="geometry" />
        </mxCell>
        <mxCell id="-eeA9KjMYzKJ0V8_IV6V-35" value="" style="shape=partialRectangle;collapsible=0;dropTarget=0;pointerEvents=0;fillColor=none;top=0;left=0;bottom=0;right=0;points=[[0,0.5],[1,0.5]];portConstraint=eastwest;" vertex="1" parent="-eeA9KjMYzKJ0V8_IV6V-28">
          <mxGeometry y="90" width="220" height="30" as="geometry" />
        </mxCell>
        <mxCell id="-eeA9KjMYzKJ0V8_IV6V-36" value="" style="shape=partialRectangle;connectable=0;fillColor=none;top=0;left=0;bottom=0;right=0;editable=1;overflow=hidden;" vertex="1" parent="-eeA9KjMYzKJ0V8_IV6V-35">
          <mxGeometry width="30" height="30" as="geometry" />
        </mxCell>
        <mxCell id="-eeA9KjMYzKJ0V8_IV6V-37" value="Age: byte" style="shape=partialRectangle;connectable=0;fillColor=none;top=0;left=0;bottom=0;right=0;align=left;spacingLeft=6;overflow=hidden;" vertex="1" parent="-eeA9KjMYzKJ0V8_IV6V-35">
          <mxGeometry x="30" width="190" height="30" as="geometry" />
        </mxCell>
        <mxCell id="-eeA9KjMYzKJ0V8_IV6V-38" value="" style="shape=partialRectangle;collapsible=0;dropTarget=0;pointerEvents=0;fillColor=none;top=0;left=0;bottom=0;right=0;points=[[0,0.5],[1,0.5]];portConstraint=eastwest;" vertex="1" parent="-eeA9KjMYzKJ0V8_IV6V-28">
          <mxGeometry y="120" width="220" height="30" as="geometry" />
        </mxCell>
        <mxCell id="-eeA9KjMYzKJ0V8_IV6V-39" value="" style="shape=partialRectangle;connectable=0;fillColor=none;top=0;left=0;bottom=0;right=0;editable=1;overflow=hidden;" vertex="1" parent="-eeA9KjMYzKJ0V8_IV6V-38">
          <mxGeometry width="30" height="30" as="geometry" />
        </mxCell>
        <mxCell id="-eeA9KjMYzKJ0V8_IV6V-40" value="Email: varchar (10)" style="shape=partialRectangle;connectable=0;fillColor=none;top=0;left=0;bottom=0;right=0;align=left;spacingLeft=6;overflow=hidden;" vertex="1" parent="-eeA9KjMYzKJ0V8_IV6V-38">
          <mxGeometry x="30" width="190" height="30" as="geometry" />
        </mxCell>
        <mxCell id="-eeA9KjMYzKJ0V8_IV6V-41" value="Contact: Long (10)" style="shape=partialRectangle;connectable=0;fillColor=none;top=0;left=0;bottom=0;right=0;align=left;spacingLeft=6;overflow=hidden;" vertex="1" parent="1">
          <mxGeometry x="60" y="400" width="150" height="30" as="geometry" />
        </mxCell>
        <mxCell id="-eeA9KjMYzKJ0V8_IV6V-42" value="Address: varchar (50)" style="shape=partialRectangle;connectable=0;fillColor=none;top=0;left=0;bottom=0;right=0;align=left;spacingLeft=6;overflow=hidden;" vertex="1" parent="1">
          <mxGeometry x="60" y="430" width="150" height="30" as="geometry" />
        </mxCell>
        <mxCell id="-eeA9KjMYzKJ0V8_IV6V-43" value="Trainer Preference: boolean" style="shape=partialRectangle;connectable=0;fillColor=none;top=0;left=0;bottom=0;right=0;align=left;spacingLeft=6;overflow=hidden;" vertex="1" parent="1">
          <mxGeometry x="60" y="460" width="170" height="30" as="geometry" />
        </mxCell>
        <mxCell id="-eeA9KjMYzKJ0V8_IV6V-44" value="Physio: boolean" style="shape=partialRectangle;connectable=0;fillColor=none;top=0;left=0;bottom=0;right=0;align=left;spacingLeft=6;overflow=hidden;" vertex="1" parent="1">
          <mxGeometry x="60" y="490" width="150" height="30" as="geometry" />
        </mxCell>
        <mxCell id="-eeA9KjMYzKJ0V8_IV6V-45" value="Package: boolean" style="shape=partialRectangle;connectable=0;fillColor=none;top=0;left=0;bottom=0;right=0;align=left;spacingLeft=6;overflow=hidden;" vertex="1" parent="1">
          <mxGeometry x="60" y="520" width="150" height="30" as="geometry" />
        </mxCell>
        <mxCell id="-eeA9KjMYzKJ0V8_IV6V-46" value="Weeks: Short" style="shape=partialRectangle;connectable=0;fillColor=none;top=0;left=0;bottom=0;right=0;align=left;spacingLeft=6;overflow=hidden;" vertex="1" parent="1">
          <mxGeometry x="60" y="550" width="150" height="30" as="geometry" />
        </mxCell>
        <mxCell id="-eeA9KjMYzKJ0V8_IV6V-47" value="Amount: int" style="shape=partialRectangle;connectable=0;fillColor=none;top=0;left=0;bottom=0;right=0;align=left;spacingLeft=6;overflow=hidden;" vertex="1" parent="1">
          <mxGeometry x="60" y="580" width="150" height="30" as="geometry" />
        </mxCell>
        <mxCell id="-eeA9KjMYzKJ0V8_IV6V-48" value="View Appointment" style="shape=table;startSize=30;container=1;collapsible=1;childLayout=tableLayout;fixedRows=1;rowLines=0;fontStyle=1;align=center;resizeLast=1;" vertex="1" parent="1">
          <mxGeometry x="330" y="250" width="240" height="400" as="geometry" />
        </mxCell>
        <mxCell id="-eeA9KjMYzKJ0V8_IV6V-49" value="" style="shape=partialRectangle;collapsible=0;dropTarget=0;pointerEvents=0;fillColor=none;top=0;left=0;bottom=1;right=0;points=[[0,0.5],[1,0.5]];portConstraint=eastwest;" vertex="1" parent="-eeA9KjMYzKJ0V8_IV6V-48">
          <mxGeometry y="30" width="240" height="30" as="geometry" />
        </mxCell>
        <mxCell id="-eeA9KjMYzKJ0V8_IV6V-50" value="PK" style="shape=partialRectangle;connectable=0;fillColor=none;top=0;left=0;bottom=0;right=0;fontStyle=1;overflow=hidden;" vertex="1" parent="-eeA9KjMYzKJ0V8_IV6V-49">
          <mxGeometry width="30" height="30" as="geometry" />
        </mxCell>
        <mxCell id="-eeA9KjMYzKJ0V8_IV6V-51" value="UniqueID int" style="shape=partialRectangle;connectable=0;fillColor=none;top=0;left=0;bottom=0;right=0;align=left;spacingLeft=6;fontStyle=5;overflow=hidden;" vertex="1" parent="-eeA9KjMYzKJ0V8_IV6V-49">
          <mxGeometry x="30" width="210" height="30" as="geometry" />
        </mxCell>
        <mxCell id="-eeA9KjMYzKJ0V8_IV6V-52" value="" style="shape=partialRectangle;collapsible=0;dropTarget=0;pointerEvents=0;fillColor=none;top=0;left=0;bottom=0;right=0;points=[[0,0.5],[1,0.5]];portConstraint=eastwest;" vertex="1" parent="-eeA9KjMYzKJ0V8_IV6V-48">
          <mxGeometry y="60" width="240" height="30" as="geometry" />
        </mxCell>
        <mxCell id="-eeA9KjMYzKJ0V8_IV6V-53" value="" style="shape=partialRectangle;connectable=0;fillColor=none;top=0;left=0;bottom=0;right=0;editable=1;overflow=hidden;" vertex="1" parent="-eeA9KjMYzKJ0V8_IV6V-52">
          <mxGeometry width="30" height="30" as="geometry" />
        </mxCell>
        <mxCell id="-eeA9KjMYzKJ0V8_IV6V-54" value="Sr No.: int" style="shape=partialRectangle;connectable=0;fillColor=none;top=0;left=0;bottom=0;right=0;align=left;spacingLeft=6;overflow=hidden;" vertex="1" parent="-eeA9KjMYzKJ0V8_IV6V-52">
          <mxGeometry x="30" width="210" height="30" as="geometry" />
        </mxCell>
        <mxCell id="-eeA9KjMYzKJ0V8_IV6V-55" value="" style="shape=partialRectangle;collapsible=0;dropTarget=0;pointerEvents=0;fillColor=none;top=0;left=0;bottom=0;right=0;points=[[0,0.5],[1,0.5]];portConstraint=eastwest;" vertex="1" parent="-eeA9KjMYzKJ0V8_IV6V-48">
          <mxGeometry y="90" width="240" height="30" as="geometry" />
        </mxCell>
        <mxCell id="-eeA9KjMYzKJ0V8_IV6V-56" value="" style="shape=partialRectangle;connectable=0;fillColor=none;top=0;left=0;bottom=0;right=0;editable=1;overflow=hidden;" vertex="1" parent="-eeA9KjMYzKJ0V8_IV6V-55">
          <mxGeometry width="30" height="30" as="geometry" />
        </mxCell>
        <mxCell id="-eeA9KjMYzKJ0V8_IV6V-57" value="Name: varchar (10)" style="shape=partialRectangle;connectable=0;fillColor=none;top=0;left=0;bottom=0;right=0;align=left;spacingLeft=6;overflow=hidden;" vertex="1" parent="-eeA9KjMYzKJ0V8_IV6V-55">
          <mxGeometry x="30" width="210" height="30" as="geometry" />
        </mxCell>
        <mxCell id="-eeA9KjMYzKJ0V8_IV6V-58" value="" style="shape=partialRectangle;collapsible=0;dropTarget=0;pointerEvents=0;fillColor=none;top=0;left=0;bottom=0;right=0;points=[[0,0.5],[1,0.5]];portConstraint=eastwest;" vertex="1" parent="-eeA9KjMYzKJ0V8_IV6V-48">
          <mxGeometry y="120" width="240" height="30" as="geometry" />
        </mxCell>
        <mxCell id="-eeA9KjMYzKJ0V8_IV6V-59" value="" style="shape=partialRectangle;connectable=0;fillColor=none;top=0;left=0;bottom=0;right=0;editable=1;overflow=hidden;" vertex="1" parent="-eeA9KjMYzKJ0V8_IV6V-58">
          <mxGeometry width="30" height="30" as="geometry" />
        </mxCell>
        <mxCell id="-eeA9KjMYzKJ0V8_IV6V-60" value="Age: byte" style="shape=partialRectangle;connectable=0;fillColor=none;top=0;left=0;bottom=0;right=0;align=left;spacingLeft=6;overflow=hidden;" vertex="1" parent="-eeA9KjMYzKJ0V8_IV6V-58">
          <mxGeometry x="30" width="210" height="30" as="geometry" />
        </mxCell>
        <mxCell id="-eeA9KjMYzKJ0V8_IV6V-61" value="Email: varchar (10)" style="shape=partialRectangle;connectable=0;fillColor=none;top=0;left=0;bottom=0;right=0;align=left;spacingLeft=6;overflow=hidden;" vertex="1" parent="1">
          <mxGeometry x="360" y="400" width="150" height="30" as="geometry" />
        </mxCell>
        <mxCell id="-eeA9KjMYzKJ0V8_IV6V-62" value="Contact: Long (10)" style="shape=partialRectangle;connectable=0;fillColor=none;top=0;left=0;bottom=0;right=0;align=left;spacingLeft=6;overflow=hidden;" vertex="1" parent="1">
          <mxGeometry x="360" y="430" width="150" height="30" as="geometry" />
        </mxCell>
        <mxCell id="-eeA9KjMYzKJ0V8_IV6V-63" value="Address: varchar (50)" style="shape=partialRectangle;connectable=0;fillColor=none;top=0;left=0;bottom=0;right=0;align=left;spacingLeft=6;overflow=hidden;" vertex="1" parent="1">
          <mxGeometry x="360" y="460" width="150" height="30" as="geometry" />
        </mxCell>
        <mxCell id="-eeA9KjMYzKJ0V8_IV6V-64" value="Trainer Preference: varchar (10)" style="shape=partialRectangle;connectable=0;fillColor=none;top=0;left=0;bottom=0;right=0;align=left;spacingLeft=6;overflow=hidden;" vertex="1" parent="1">
          <mxGeometry x="360" y="490" width="180" height="30" as="geometry" />
        </mxCell>
        <mxCell id="-eeA9KjMYzKJ0V8_IV6V-65" value="Physio: varchar (10)" style="shape=partialRectangle;connectable=0;fillColor=none;top=0;left=0;bottom=0;right=0;align=left;spacingLeft=6;overflow=hidden;" vertex="1" parent="1">
          <mxGeometry x="360" y="520" width="150" height="30" as="geometry" />
        </mxCell>
        <mxCell id="-eeA9KjMYzKJ0V8_IV6V-66" value="Package: int" style="shape=partialRectangle;connectable=0;fillColor=none;top=0;left=0;bottom=0;right=0;align=left;spacingLeft=6;overflow=hidden;" vertex="1" parent="1">
          <mxGeometry x="360" y="550" width="150" height="30" as="geometry" />
        </mxCell>
        <mxCell id="-eeA9KjMYzKJ0V8_IV6V-67" value="Weeks: Short" style="shape=partialRectangle;connectable=0;fillColor=none;top=0;left=0;bottom=0;right=0;align=left;spacingLeft=6;overflow=hidden;" vertex="1" parent="1">
          <mxGeometry x="360" y="580" width="150" height="30" as="geometry" />
        </mxCell>
        <mxCell id="-eeA9KjMYzKJ0V8_IV6V-68" value="Amount: int" style="shape=partialRectangle;connectable=0;fillColor=none;top=0;left=0;bottom=0;right=0;align=left;spacingLeft=6;overflow=hidden;" vertex="1" parent="1">
          <mxGeometry x="360" y="610" width="150" height="30" as="geometry" />
        </mxCell>
        <mxCell id="-eeA9KjMYzKJ0V8_IV6V-69" value="Contact" style="shape=table;startSize=30;container=1;collapsible=1;childLayout=tableLayout;fixedRows=1;rowLines=0;fontStyle=1;align=center;resizeLast=1;" vertex="1" parent="1">
          <mxGeometry x="620" y="250" width="180" height="160" as="geometry" />
        </mxCell>
        <mxCell id="-eeA9KjMYzKJ0V8_IV6V-70" value="" style="shape=partialRectangle;collapsible=0;dropTarget=0;pointerEvents=0;fillColor=none;top=0;left=0;bottom=1;right=0;points=[[0,0.5],[1,0.5]];portConstraint=eastwest;" vertex="1" parent="-eeA9KjMYzKJ0V8_IV6V-69">
          <mxGeometry y="30" width="180" height="30" as="geometry" />
        </mxCell>
        <mxCell id="-eeA9KjMYzKJ0V8_IV6V-71" value="" style="shape=partialRectangle;connectable=0;fillColor=none;top=0;left=0;bottom=0;right=0;fontStyle=1;overflow=hidden;" vertex="1" parent="-eeA9KjMYzKJ0V8_IV6V-70">
          <mxGeometry width="30" height="30" as="geometry" />
        </mxCell>
        <mxCell id="-eeA9KjMYzKJ0V8_IV6V-72" value="" style="shape=partialRectangle;connectable=0;fillColor=none;top=0;left=0;bottom=0;right=0;align=left;spacingLeft=6;fontStyle=5;overflow=hidden;" vertex="1" parent="-eeA9KjMYzKJ0V8_IV6V-70">
          <mxGeometry x="30" width="150" height="30" as="geometry" />
        </mxCell>
        <mxCell id="-eeA9KjMYzKJ0V8_IV6V-73" value="" style="shape=partialRectangle;collapsible=0;dropTarget=0;pointerEvents=0;fillColor=none;top=0;left=0;bottom=0;right=0;points=[[0,0.5],[1,0.5]];portConstraint=eastwest;" vertex="1" parent="-eeA9KjMYzKJ0V8_IV6V-69">
          <mxGeometry y="60" width="180" height="30" as="geometry" />
        </mxCell>
        <mxCell id="-eeA9KjMYzKJ0V8_IV6V-74" value="" style="shape=partialRectangle;connectable=0;fillColor=none;top=0;left=0;bottom=0;right=0;editable=1;overflow=hidden;" vertex="1" parent="-eeA9KjMYzKJ0V8_IV6V-73">
          <mxGeometry width="30" height="30" as="geometry" />
        </mxCell>
        <mxCell id="-eeA9KjMYzKJ0V8_IV6V-75" value="Address: varchar (50)" style="shape=partialRectangle;connectable=0;fillColor=none;top=0;left=0;bottom=0;right=0;align=left;spacingLeft=6;overflow=hidden;" vertex="1" parent="-eeA9KjMYzKJ0V8_IV6V-73">
          <mxGeometry x="30" width="150" height="30" as="geometry" />
        </mxCell>
        <mxCell id="-eeA9KjMYzKJ0V8_IV6V-76" value="" style="shape=partialRectangle;collapsible=0;dropTarget=0;pointerEvents=0;fillColor=none;top=0;left=0;bottom=0;right=0;points=[[0,0.5],[1,0.5]];portConstraint=eastwest;" vertex="1" parent="-eeA9KjMYzKJ0V8_IV6V-69">
          <mxGeometry y="90" width="180" height="30" as="geometry" />
        </mxCell>
        <mxCell id="-eeA9KjMYzKJ0V8_IV6V-77" value="" style="shape=partialRectangle;connectable=0;fillColor=none;top=0;left=0;bottom=0;right=0;editable=1;overflow=hidden;" vertex="1" parent="-eeA9KjMYzKJ0V8_IV6V-76">
          <mxGeometry width="30" height="30" as="geometry" />
        </mxCell>
        <mxCell id="-eeA9KjMYzKJ0V8_IV6V-78" value="Email: varchar (10)" style="shape=partialRectangle;connectable=0;fillColor=none;top=0;left=0;bottom=0;right=0;align=left;spacingLeft=6;overflow=hidden;" vertex="1" parent="-eeA9KjMYzKJ0V8_IV6V-76">
          <mxGeometry x="30" width="150" height="30" as="geometry" />
        </mxCell>
        <mxCell id="-eeA9KjMYzKJ0V8_IV6V-79" value="" style="shape=partialRectangle;collapsible=0;dropTarget=0;pointerEvents=0;fillColor=none;top=0;left=0;bottom=0;right=0;points=[[0,0.5],[1,0.5]];portConstraint=eastwest;" vertex="1" parent="-eeA9KjMYzKJ0V8_IV6V-69">
          <mxGeometry y="120" width="180" height="30" as="geometry" />
        </mxCell>
        <mxCell id="-eeA9KjMYzKJ0V8_IV6V-80" value="" style="shape=partialRectangle;connectable=0;fillColor=none;top=0;left=0;bottom=0;right=0;editable=1;overflow=hidden;" vertex="1" parent="-eeA9KjMYzKJ0V8_IV6V-79">
          <mxGeometry width="30" height="30" as="geometry" />
        </mxCell>
        <mxCell id="-eeA9KjMYzKJ0V8_IV6V-81" value="Contact No.: long" style="shape=partialRectangle;connectable=0;fillColor=none;top=0;left=0;bottom=0;right=0;align=left;spacingLeft=6;overflow=hidden;" vertex="1" parent="-eeA9KjMYzKJ0V8_IV6V-79">
          <mxGeometry x="30" width="150" height="30" as="geometry" />
        </mxCell>
        <mxCell id="-eeA9KjMYzKJ0V8_IV6V-82" value="Address" style="shape=table;startSize=30;container=1;collapsible=1;childLayout=tableLayout;fixedRows=1;rowLines=0;fontStyle=1;align=center;resizeLast=1;" vertex="1" parent="1">
          <mxGeometry x="300" y="690" width="180" height="250" as="geometry" />
        </mxCell>
        <mxCell id="-eeA9KjMYzKJ0V8_IV6V-83" value="" style="shape=partialRectangle;collapsible=0;dropTarget=0;pointerEvents=0;fillColor=none;top=0;left=0;bottom=1;right=0;points=[[0,0.5],[1,0.5]];portConstraint=eastwest;" vertex="1" parent="-eeA9KjMYzKJ0V8_IV6V-82">
          <mxGeometry y="30" width="180" height="30" as="geometry" />
        </mxCell>
        <mxCell id="-eeA9KjMYzKJ0V8_IV6V-84" value="PK" style="shape=partialRectangle;connectable=0;fillColor=none;top=0;left=0;bottom=0;right=0;fontStyle=1;overflow=hidden;" vertex="1" parent="-eeA9KjMYzKJ0V8_IV6V-83">
          <mxGeometry width="30" height="30" as="geometry" />
        </mxCell>
        <mxCell id="-eeA9KjMYzKJ0V8_IV6V-85" value="UniqueID int" style="shape=partialRectangle;connectable=0;fillColor=none;top=0;left=0;bottom=0;right=0;align=left;spacingLeft=6;fontStyle=5;overflow=hidden;" vertex="1" parent="-eeA9KjMYzKJ0V8_IV6V-83">
          <mxGeometry x="30" width="150" height="30" as="geometry" />
        </mxCell>
        <mxCell id="-eeA9KjMYzKJ0V8_IV6V-86" value="" style="shape=partialRectangle;collapsible=0;dropTarget=0;pointerEvents=0;fillColor=none;top=0;left=0;bottom=0;right=0;points=[[0,0.5],[1,0.5]];portConstraint=eastwest;" vertex="1" parent="-eeA9KjMYzKJ0V8_IV6V-82">
          <mxGeometry y="60" width="180" height="30" as="geometry" />
        </mxCell>
        <mxCell id="-eeA9KjMYzKJ0V8_IV6V-87" value="" style="shape=partialRectangle;connectable=0;fillColor=none;top=0;left=0;bottom=0;right=0;editable=1;overflow=hidden;" vertex="1" parent="-eeA9KjMYzKJ0V8_IV6V-86">
          <mxGeometry width="30" height="30" as="geometry" />
        </mxCell>
        <mxCell id="-eeA9KjMYzKJ0V8_IV6V-88" value="Line 1: varchar (10)" style="shape=partialRectangle;connectable=0;fillColor=none;top=0;left=0;bottom=0;right=0;align=left;spacingLeft=6;overflow=hidden;" vertex="1" parent="-eeA9KjMYzKJ0V8_IV6V-86">
          <mxGeometry x="30" width="150" height="30" as="geometry" />
        </mxCell>
        <mxCell id="-eeA9KjMYzKJ0V8_IV6V-89" value="" style="shape=partialRectangle;collapsible=0;dropTarget=0;pointerEvents=0;fillColor=none;top=0;left=0;bottom=0;right=0;points=[[0,0.5],[1,0.5]];portConstraint=eastwest;" vertex="1" parent="-eeA9KjMYzKJ0V8_IV6V-82">
          <mxGeometry y="90" width="180" height="30" as="geometry" />
        </mxCell>
        <mxCell id="-eeA9KjMYzKJ0V8_IV6V-90" value="" style="shape=partialRectangle;connectable=0;fillColor=none;top=0;left=0;bottom=0;right=0;editable=1;overflow=hidden;" vertex="1" parent="-eeA9KjMYzKJ0V8_IV6V-89">
          <mxGeometry width="30" height="30" as="geometry" />
        </mxCell>
        <mxCell id="-eeA9KjMYzKJ0V8_IV6V-91" value="Line 2: varchar (10)" style="shape=partialRectangle;connectable=0;fillColor=none;top=0;left=0;bottom=0;right=0;align=left;spacingLeft=6;overflow=hidden;" vertex="1" parent="-eeA9KjMYzKJ0V8_IV6V-89">
          <mxGeometry x="30" width="150" height="30" as="geometry" />
        </mxCell>
        <mxCell id="-eeA9KjMYzKJ0V8_IV6V-92" value="" style="shape=partialRectangle;collapsible=0;dropTarget=0;pointerEvents=0;fillColor=none;top=0;left=0;bottom=0;right=0;points=[[0,0.5],[1,0.5]];portConstraint=eastwest;" vertex="1" parent="-eeA9KjMYzKJ0V8_IV6V-82">
          <mxGeometry y="120" width="180" height="30" as="geometry" />
        </mxCell>
        <mxCell id="-eeA9KjMYzKJ0V8_IV6V-93" value="" style="shape=partialRectangle;connectable=0;fillColor=none;top=0;left=0;bottom=0;right=0;editable=1;overflow=hidden;" vertex="1" parent="-eeA9KjMYzKJ0V8_IV6V-92">
          <mxGeometry width="30" height="30" as="geometry" />
        </mxCell>
        <mxCell id="-eeA9KjMYzKJ0V8_IV6V-94" value="City: varchar(10)" style="shape=partialRectangle;connectable=0;fillColor=none;top=0;left=0;bottom=0;right=0;align=left;spacingLeft=6;overflow=hidden;" vertex="1" parent="-eeA9KjMYzKJ0V8_IV6V-92">
          <mxGeometry x="30" width="150" height="30" as="geometry" />
        </mxCell>
        <mxCell id="-eeA9KjMYzKJ0V8_IV6V-95" value="State: varchar (10)" style="shape=partialRectangle;connectable=0;fillColor=none;top=0;left=0;bottom=0;right=0;align=left;spacingLeft=6;overflow=hidden;" vertex="1" parent="1">
          <mxGeometry x="330" y="840" width="150" height="30" as="geometry" />
        </mxCell>
        <mxCell id="-eeA9KjMYzKJ0V8_IV6V-96" value="Country: varchar (10)" style="shape=partialRectangle;connectable=0;fillColor=none;top=0;left=0;bottom=0;right=0;align=left;spacingLeft=6;overflow=hidden;" vertex="1" parent="1">
          <mxGeometry x="330" y="870" width="150" height="30" as="geometry" />
        </mxCell>
        <mxCell id="-eeA9KjMYzKJ0V8_IV6V-97" value="Pincode: short" style="shape=partialRectangle;connectable=0;fillColor=none;top=0;left=0;bottom=0;right=0;align=left;spacingLeft=6;overflow=hidden;" vertex="1" parent="1">
          <mxGeometry x="330" y="900" width="150" height="30" as="geometry" />
        </mxCell>
        <mxCell id="-eeA9KjMYzKJ0V8_IV6V-98" value="" style="edgeStyle=entityRelationEdgeStyle;fontSize=12;html=1;endArrow=ERmandOne;startArrow=ERmandOne;entryX=-0.004;entryY=0.119;entryDx=0;entryDy=0;entryPerimeter=0;" edge="1" parent="1" target="-eeA9KjMYzKJ0V8_IV6V-14">
          <mxGeometry width="100" height="100" relative="1" as="geometry">
            <mxPoint x="200" y="50" as="sourcePoint" />
            <mxPoint x="300" y="-50" as="targetPoint" />
          </mxGeometry>
        </mxCell>
        <mxCell id="-eeA9KjMYzKJ0V8_IV6V-101" value="" style="edgeStyle=entityRelationEdgeStyle;fontSize=12;html=1;endArrow=ERoneToMany;entryX=-0.014;entryY=0.233;entryDx=0;entryDy=0;entryPerimeter=0;" edge="1" parent="1" target="-eeA9KjMYzKJ0V8_IV6V-21">
          <mxGeometry width="100" height="100" relative="1" as="geometry">
            <mxPoint x="220" y="250" as="sourcePoint" />
            <mxPoint x="320" y="150" as="targetPoint" />
          </mxGeometry>
        </mxCell>
        <mxCell id="-eeA9KjMYzKJ0V8_IV6V-102" value="" style="edgeStyle=entityRelationEdgeStyle;fontSize=12;html=1;endArrow=ERoneToMany;entryX=-0.012;entryY=0.048;entryDx=0;entryDy=0;entryPerimeter=0;" edge="1" parent="1" target="-eeA9KjMYzKJ0V8_IV6V-48">
          <mxGeometry width="100" height="100" relative="1" as="geometry">
            <mxPoint x="250" y="220" as="sourcePoint" />
            <mxPoint x="350" y="120" as="targetPoint" />
          </mxGeometry>
        </mxCell>
        <mxCell id="-eeA9KjMYzKJ0V8_IV6V-103" value="" style="edgeStyle=entityRelationEdgeStyle;fontSize=12;html=1;endArrow=ERoneToMany;entryX=-0.006;entryY=0.088;entryDx=0;entryDy=0;entryPerimeter=0;" edge="1" parent="1" target="-eeA9KjMYzKJ0V8_IV6V-69">
          <mxGeometry width="100" height="100" relative="1" as="geometry">
            <mxPoint x="560" y="140" as="sourcePoint" />
            <mxPoint x="660" y="40" as="targetPoint" />
          </mxGeometry>
        </mxCell>
      </root>
    </mxGraphModel>
  </diagram>
</mxfile>
